<svg width="34" height="34" viewBox="0 0 34 34" fill="none" xmlns="http://www.w3.org/2000/svg">
<path d="M14.5404 24.584L26.332 12.7923L24.4154 10.9173L14.5404 20.7923L9.54037 15.7923L7.66537 17.6673L14.5404 24.584ZM16.9987 33.6673C14.7209 33.6673 12.5681 33.2298 10.5404 32.3548C8.51259 31.4798 6.74175 30.2854 5.22787 28.7715C3.71398 27.2576 2.51953 25.4868 1.64453 23.459C0.769531 21.4312 0.332031 19.2784 0.332031 17.0007C0.332031 14.6951 0.769531 12.5284 1.64453 10.5007C2.51953 8.47287 3.71398 6.70899 5.22787 5.20898C6.74175 3.70898 8.51259 2.52148 10.5404 1.64648C12.5681 0.771484 14.7209 0.333984 16.9987 0.333984C19.3043 0.333984 21.4709 0.771484 23.4987 1.64648C25.5265 2.52148 27.2904 3.70898 28.7904 5.20898C30.2904 6.70899 31.4779 8.47287 32.3529 10.5007C33.2279 12.5284 33.6654 14.6951 33.6654 17.0007C33.6654 19.2784 33.2279 21.4312 32.3529 23.459C31.4779 25.4868 30.2904 27.2576 28.7904 28.7715C27.2904 30.2854 25.5265 31.4798 23.4987 32.3548C21.4709 33.2298 19.3043 33.6673 16.9987 33.6673ZM16.9987 31.1673C20.9431 31.1673 24.2904 29.7854 27.0404 27.0215C29.7904 24.2576 31.1654 20.9173 31.1654 17.0007C31.1654 13.0562 29.7904 9.70899 27.0404 6.95899C24.2904 4.20899 20.9431 2.83398 16.9987 2.83398C13.082 2.83398 9.74175 4.20899 6.97787 6.95899C4.21398 9.70899 2.83203 13.0562 2.83203 17.0007C2.83203 20.9173 4.21398 24.2576 6.97787 27.0215C9.74175 29.7854 13.082 31.1673 16.9987 31.1673Z" fill="#3C7FFF"/>
</svg>
