<svg width="35" height="34" viewBox="0 0 35 34" fill="none" xmlns="http://www.w3.org/2000/svg">
<path d="M15.0404 24.584L26.832 12.7923L24.9154 10.9173L15.0404 20.7923L10.0404 15.7923L8.16537 17.6673L15.0404 24.584ZM17.4987 33.6673C15.2209 33.6673 13.0681 33.2298 11.0404 32.3548C9.01259 31.4798 7.24175 30.2854 5.72787 28.7715C4.21398 27.2576 3.01953 25.4868 2.14453 23.459C1.26953 21.4312 0.832031 19.2784 0.832031 17.0007C0.832031 14.6951 1.26953 12.5284 2.14453 10.5007C3.01953 8.47287 4.21398 6.70899 5.72787 5.20898C7.24175 3.70898 9.01259 2.52148 11.0404 1.64648C13.0681 0.771484 15.2209 0.333984 17.4987 0.333984C19.8043 0.333984 21.9709 0.771484 23.9987 1.64648C26.0265 2.52148 27.7904 3.70898 29.2904 5.20898C30.7904 6.70899 31.9779 8.47287 32.8529 10.5007C33.7279 12.5284 34.1654 14.6951 34.1654 17.0007C34.1654 19.2784 33.7279 21.4312 32.8529 23.459C31.9779 25.4868 30.7904 27.2576 29.2904 28.7715C27.7904 30.2854 26.0265 31.4798 23.9987 32.3548C21.9709 33.2298 19.8043 33.6673 17.4987 33.6673ZM17.4987 31.1673C21.4431 31.1673 24.7904 29.7854 27.5404 27.0215C30.2904 24.2576 31.6654 20.9173 31.6654 17.0007C31.6654 13.0562 30.2904 9.70899 27.5404 6.95899C24.7904 4.20899 21.4431 2.83398 17.4987 2.83398C13.582 2.83398 10.2418 4.20899 7.47787 6.95899C4.71398 9.70899 3.33203 13.0562 3.33203 17.0007C3.33203 20.9173 4.71398 24.2576 7.47787 27.0215C10.2418 29.7854 13.582 31.1673 17.4987 31.1673Z" fill="#FF555F"/>
</svg>
