<svg width="30" height="30" viewBox="0 0 30 30" fill="none"
  xmlns="http://www.w3.org/2000/svg">
  <path
    d="M8.75 27.5V20H6.75C5.91667 20 5.20833 19.7083 4.625 19.125C4.04167 18.5417 3.75 17.8333 3.75 17C3.75 16.3958 3.91667 15.8385 4.25 15.3281C4.58333 14.8177 5.02083 14.4375 5.5625 14.1875L13.75 10.5625V9.75C13 9.47917 12.3958 9.02604 11.9375 8.39062C11.4792 7.75521 11.25 7.04167 11.25 6.25C11.25 5.20833 11.6146 4.32292 12.3438 3.59375C13.0729 2.86458 13.9583 2.5 15 2.5C16.0417 2.5 16.9271 2.86458 17.6562 3.59375C18.3854 4.32292 18.75 5.20833 18.75 6.25H16.25C16.25 5.89583 16.1302 5.59896 15.8906 5.35938C15.651 5.11979 15.3542 5 15 5C14.6458 5 14.349 5.11979 14.1094 5.35938C13.8698 5.59896 13.75 5.89583 13.75 6.25C13.75 6.60417 13.8698 6.90104 14.1094 7.14062C14.349 7.38021 14.6458 7.5 15 7.5C15.3542 7.5 15.651 7.61979 15.8906 7.85938C16.1302 8.09896 16.25 8.39583 16.25 8.75V10.5625L24.4375 14.1875C24.9792 14.4375 25.4167 14.8177 25.75 15.3281C26.0833 15.8385 26.25 16.3958 26.25 17C26.25 17.8333 25.9583 18.5417 25.375 19.125C24.7917 19.7083 24.0833 20 23.25 20H21.25V27.5H8.75ZM6.75 17.5H8.75V16.25H21.25V17.5H23.25C23.3958 17.5 23.5156 17.4479 23.6094 17.3438C23.7031 17.2396 23.75 17.1042 23.75 16.9375C23.75 16.8333 23.724 16.7448 23.6719 16.6719C23.6198 16.599 23.5417 16.5417 23.4375 16.5L15 12.75L6.5625 16.5C6.45833 16.5417 6.38021 16.599 6.32812 16.6719C6.27604 16.7448 6.25 16.8333 6.25 16.9375C6.25 17.1042 6.29688 17.2396 6.39062 17.3438C6.48438 17.4479 6.60417 17.5 6.75 17.5ZM11.25 25H18.75V18.75H11.25V25Z"
    fill="#E5E5EA" />
</svg>
