<svg width="22" height="27" viewBox="0 0 22 27" fill="none" xmlns="http://www.w3.org/2000/svg">
<path d="M20.7181 20.053L18.9981 18.333V11.6663C18.9981 7.57301 16.8114 4.14634 12.9981 3.23967V2.33301C12.9981 1.22634 12.1048 0.333008 10.9981 0.333008C9.89145 0.333008 8.99812 1.22634 8.99812 2.33301V3.23967C5.17145 4.14634 2.99812 7.55967 2.99812 11.6663V18.333L1.27812 20.053C0.438115 20.893 1.02478 22.333 2.21145 22.333H19.7715C20.9714 22.333 21.5581 20.893 20.7181 20.053ZM16.3314 19.6663H5.66478V11.6663C5.66478 8.35967 7.67812 5.66634 10.9981 5.66634C14.3181 5.66634 16.3314 8.35967 16.3314 11.6663V19.6663ZM10.9981 26.333C12.4648 26.333 13.6648 25.133 13.6648 23.6663H8.33145C8.33145 25.133 9.51812 26.333 10.9981 26.333Z" fill="#1C1C1E"/>
</svg>
